TITLE ""
FILE "1Q_t_1630-1638.mp3" MP3
  TRACK 01 AUDIO
    TITLE "1Q_t_1630-1638_01"
    INDEX 01 00:00:00
  TRACK 02 AUDIO
    TITLE "1Q_t_1630-1638_02"
    INDEX 01 00:00:71
  TRACK 03 AUDIO
    TITLE "1Q_t_1630-1638_03"
    INDEX 01 00:01:08
  TRACK 04 AUDIO
    TITLE "1Q_t_1630-1638_04"
    INDEX 01 00:03:32
  TRACK 05 AUDIO
    TITLE "1Q_t_1630-1638_05"
    INDEX 01 00:03:40
  TRACK 06 AUDIO
    TITLE "1Q_t_1630-1638_06"
    INDEX 01 00:07:63
  TRACK 07 AUDIO
    TITLE "1Q_t_1630-1638_07"
    INDEX 01 00:08:37
  TRACK 08 AUDIO
    TITLE "1Q_t_1630-1638_08"
    INDEX 01 00:09:45
  TRACK 09 AUDIO
    TITLE "1Q_t_1630-1638_09"
    INDEX 01 00:09:56
  TRACK 10 AUDIO
    TITLE "1Q_t_1630-1638_10"
    INDEX 01 00:11:16
  TRACK 11 AUDIO
    TITLE "1Q_t_1630-1638_11"
    INDEX 01 00:11:22
  TRACK 12 AUDIO
    TITLE "1Q_t_1630-1638_12"
    INDEX 01 00:15:69
  TRACK 13 AUDIO
    TITLE "1Q_t_1630-1638_13"
    INDEX 01 00:16:41
  TRACK 14 AUDIO
    TITLE "1Q_t_1630-1638_14"
    INDEX 01 00:17:66
  TRACK 15 AUDIO
    TITLE "1Q_t_1630-1638_15"
    INDEX 01 00:18:00
  TRACK 16 AUDIO
    TITLE "1Q_t_1630-1638_16"
    INDEX 01 00:21:24
  TRACK 17 AUDIO
    TITLE "1Q_t_1630-1638_17"
    INDEX 01 00:21:32
  TRACK 18 AUDIO
    TITLE "1Q_t_1630-1638_18"
    INDEX 01 00:25:34
  TRACK 19 AUDIO
    TITLE "1Q_t_1630-1638_19"
    INDEX 01 00:26:06
  TRACK 20 AUDIO
    TITLE "1Q_t_1630-1638_20"
    INDEX 01 00:27:11
  TRACK 21 AUDIO
    TITLE "1Q_t_1630-1638_21"
    INDEX 01 00:27:19
  TRACK 22 AUDIO
    TITLE "1Q_t_1630-1638_22"
    INDEX 01 00:29:04
  TRACK 23 AUDIO
    TITLE "1Q_t_1630-1638_23"
    INDEX 01 00:29:14
  TRACK 24 AUDIO
    TITLE "1Q_t_1630-1638_24"
    INDEX 01 00:33:37
  TRACK 25 AUDIO
    TITLE "1Q_t_1630-1638_25"
    INDEX 01 00:34:09
  TRACK 26 AUDIO
    TITLE "1Q_t_1630-1638_26"
    INDEX 01 00:35:11
  TRACK 27 AUDIO
    TITLE "1Q_t_1630-1638_27"
    INDEX 01 00:35:22
  TRACK 28 AUDIO
    TITLE "1Q_t_1630-1638_28"
    INDEX 01 00:38:13
  TRACK 29 AUDIO
    TITLE "1Q_t_1630-1638_29"
    INDEX 01 00:38:21
  TRACK 30 AUDIO
    TITLE "1Q_t_1630-1638_30"
    INDEX 01 00:41:64
  TRACK 31 AUDIO
    TITLE "1Q_t_1630-1638_31"
    INDEX 01 00:42:36
  TRACK 32 AUDIO
    TITLE "1Q_t_1630-1638_32"
    INDEX 01 00:43:40
  TRACK 33 AUDIO
    TITLE "1Q_t_1630-1638_33"
    INDEX 01 00:43:49
  TRACK 34 AUDIO
    TITLE "1Q_t_1630-1638_34"
    INDEX 01 00:45:21
  TRACK 35 AUDIO
    TITLE "1Q_t_1630-1638_35"
    INDEX 01 00:45:31
  TRACK 36 AUDIO
    TITLE "1Q_t_1630-1638_36"
    INDEX 01 00:50:32
  TRACK 37 AUDIO
    TITLE "1Q_t_1630-1638_37"
    INDEX 01 00:51:06
  TRACK 38 AUDIO
    TITLE "1Q_t_1630-1638_38"
    INDEX 01 00:52:27
  TRACK 39 AUDIO
    TITLE "1Q_t_1630-1638_39"
    INDEX 01 00:52:36
  TRACK 40 AUDIO
    TITLE "1Q_t_1630-1638_40"
    INDEX 01 00:54:00
  TRACK 41 AUDIO
    TITLE "1Q_t_1630-1638_41"
    INDEX 01 00:54:08
  TRACK 42 AUDIO
    TITLE "1Q_t_1630-1638_42"
    INDEX 01 00:58:63
  TRACK 43 AUDIO
    TITLE "1Q_t_1630-1638_43"
    INDEX 01 00:59:35
  TRACK 44 AUDIO
    TITLE "1Q_t_1630-1638_44"
    INDEX 01 01:00:42
  TRACK 45 AUDIO
    TITLE "1Q_t_1630-1638_45"
    INDEX 01 01:00:52
  TRACK 46 AUDIO
    TITLE "1Q_t_1630-1638_46"
    INDEX 01 01:02:54
  TRACK 47 AUDIO
    TITLE "1Q_t_1630-1638_47"
    INDEX 01 01:02:60
  TRACK 48 AUDIO
    TITLE "1Q_t_1630-1638_48"
    INDEX 01 01:07:13
  TRACK 49 AUDIO
    TITLE "1Q_t_1630-1638_49"
    INDEX 01 01:07:64
  TRACK 50 AUDIO
    TITLE "1Q_t_1630-1638_50"
    INDEX 01 01:08:73
  TRACK 51 AUDIO
    TITLE "1Q_t_1630-1638_51"
    INDEX 01 01:09:10
  TRACK 52 AUDIO
    TITLE "1Q_t_1630-1638_52"
    INDEX 01 01:12:22
  TRACK 53 AUDIO
    TITLE "1Q_t_1630-1638_53"
    INDEX 01 01:12:31
  TRACK 54 AUDIO
    TITLE "1Q_t_1630-1638_54"
    INDEX 01 01:17:52
